<?xml version="1.0" encoding="utf-8"?>
<!-- Generator: Adobe Illustrator 26.0.1, SVG Export Plug-In . SVG Version: 6.00 Build 0)  -->
<svg version="1.1" id="Layer_1" xmlns="http://www.w3.org/2000/svg" xmlns:xlink="http://www.w3.org/1999/xlink" x="0px" y="0px"
	 viewBox="0 0 732.04 308.71" style="enable-background:new 0 0 732.04 308.71;" xml:space="preserve">
<style type="text/css">
	.st0{fill:none;}
	.st1{clip-path:url(#SVGID_00000178173981349758116240000009730098549834374304_);}
	.st2{fill:#121111;}
	.st3{fill:#981B27;}
	.st4{clip-path:url(#SVGID_00000171697097533369033590000010381672455272530319_);}
	.st5{clip-path:url(#SVGID_00000092456425227918010740000012361733536347467920_);}
	.st6{clip-path:url(#SVGID_00000127744847951348263160000007243505963218301605_);}
	.st7{fill:#AE1E38;}
	.st8{fill:#E92D24;}
	.st9{clip-path:url(#SVGID_00000147925829641595672840000009695676067857616807_);}
	.st10{fill:#246699;}
	.st11{fill:#C3264C;}
	
		.st12{clip-path:url(#SVGID_00000097502291609815481550000016089496080825160882_);fill:url(#SVGID_00000049900309404949655700000002106407476574598537_);}
	.st13{fill:#246698;}
	.st14{fill:#C2264C;}
	
		.st15{clip-path:url(#SVGID_00000127024416381720085090000017499995668279432099_);fill:url(#SVGID_00000116928817543197680450000017131158028068325509_);}
	.st16{fill:#283895;}
	.st17{fill:#BFE6F6;}
	.st18{fill:#77D0EC;}
	.st19{fill:#0EAEDB;}
</style>
<g>
	<path class="st10" d="M427.08,237.31v-7.49c0-10.81-0.18-21.65-0.25-32.48c-0.09-12.78-0.19-25.56-0.29-38.34
		c-0.09-12.72-0.16-25.44-0.16-38.16c-0.01-13.61-0.02-27.22-0.02-40.83c0-6.71-0.01-13.42-0.01-20.13l-0.01-10.36
		c0-2.73-0.9-7.23,0-9.78c0.18-0.53,0.37-1.07,0.56-1.61c1.65-4.34,8.93-9.26,13.21-8.95c1.03,0.07,1.4,0.71,1.56,1.41
		c0.23,0.98,0.28,2,0.28,3.02c0.05,57.16,0.33,114.84,0.4,172.36c0.02,13.04,0.02,26.08,0.01,39.1c0,1.24-0.05,2.5-0.09,3.75
		c-0.08,2.24-1.91,4.01-4.14,4.01h-1.77c-8.33,0-16.76-0.37-25.09,0c-9.25,0.41-18.6,0.13-27.87,0.12c-9.59,0-19.17-0.01-28.76-0.02
		c-38.39-0.02-76.78-0.04-115.18-0.06c-54.52-0.03-109.03-0.06-163.55-0.09c-1.96,0-3.99,0.02-5.76,0.86
		c-2.56,1.22-4.03,3.89-5.6,6.26c-6.4,9.62-17.34,16.27-28.88,16.8c-11.54,0.52-23.33-5.37-29.24-15.3
		c-5.74-9.63-5.68-21.5-5.45-32.71l0.72-35.78c8.6,0.33,14.65,9.16,15.89,17.68c1.25,8.52-0.79,17.15-0.8,25.76
		c-0.01,10.07,3.87,21.53,14.81,23.66c5.78,1.12,11.63-1.11,15.79-5.27c8.93-8.95,6.78-23.57,6.78-35.06
		c0-8.4,7.14-15.47,13.68-20.08c7.68-5.4,16.92-6.56,26.13-6.39c9.95,0.18,19.83,0.79,29.74,0.17c7.27,0.02,14.55,0.03,21.83,0.05
		c0.45,0.44,0.7,0.7,1.15,1.14c0.02,1.43,0.03,2.85,0.05,4.27c-0.01,0.57-0.03,1.14-0.04,1.71c-0.18,10.08,1.62,25.29-3.77,34.22
		c-1.48,2.46-0.52,3.13,2.51,2.29c3.66,0,7.13,0.02,10.79,0.02c1.46,0.35,2.05-0.13,1.73-1.51c0.06-7.37,0.14-14.74,0.16-22.11
		c0-1.83,0.06-2.93,2.55-2.21c3.19,0.92,6.26,2.42,8.66,4.75c1.18,1.13,2.18,2.44,2.97,3.86c0.77,1.35,1.75,3.18,2.07,4.69v7.88
		c0,1.4-0.38,3.24,0.68,4.31c1.34,1.35,3.63,0.78,5.29,0.46c1.17-0.03,3.03-0.08,4.2-0.11c1.28,0.23,1.82-0.25,1.45-1.63
		c0.17-5.34,0.33-10.44,0.49-15.78c0.23-0.94,0.17-1.9,0.07-2.88c2.28-11.09,10.65-20.69,21.31-24.61
		c10.39-3.82,22.32-1.78,33.15-1.97c11.26-0.19,22.53-0.09,33.78-0.2c2.9-0.03,3.8,0.66,3.76,3.61
		c-0.13,10.11,0.96,20.71-0.11,30.75c-0.35,3.26-1.39,6.74-2.83,9.66c-0.45,0.91-1.55,2.39-0.53,3.23c0.66,0.55,1.82,0.14,2.6,0.1
		c1.11-0.05,2.23,0,3.34,0h11.48h29.42h7.69c2.03,0,5.4,0.67,7.28-0.14c0.37-0.16,0.6-0.54,0.68-0.93c0.08-0.39,0.04-0.79-0.01-1.19
		c-0.23-1.97-0.26-3.76-0.93-5.65c-2.98-8.37-11.18-13.83-19.99-13.78c-7.76,0.04-16.37-2.2-18.01-11.03
		c0.4-0.43,0.39-0.82-0.11-1.16c-0.5-2.91,0.69-3.74,3.6-3.65c15.9,0.53,32.28-1.12,43.79,12.13c4.58,5.26,8.82,14.55,8.2,21.67
		c-0.1,1.11-0.22,2.46,0.68,3.11c0.48,0.35,1.13,0.37,1.73,0.38c6.48,0.06,12.96,0.1,19.44,0.25c2.3,0.05,2.8-1.02,2.8-3.07
		c-0.03-8.22,0.04-16.44,0.29-24.67c0.09-2.97,1.9-5.29,3.83-7.45c2.49-2.78,12.58-9.95,12.39-1.99c-0.28,11.1-0.18,22.19-0.2,33.27
		c0,0.86,0.07,1.73,0.29,2.57c0.38,1.46,0.91,1.54,2.41,1.56c6.31,0.05,12.62-0.15,18.92,0.05c3.48,0.12,6.93,0.19,10.42,0.19
		 M225.41,237.42v-0.12c6.49,0,12.98,0.14,19.46-0.04c9.71-0.25,17.32-8.1,17.5-17.84c0.06-3.25-0.13-6.5,0.07-9.73
		c0.17-2.83-0.71-3.86-3.71-3.82c-12.46,0.17-24.93,0.34-37.38,0.03c-7.57-0.19-12.45,3.45-16.33,9.3
		c-3.71,5.58-2.96,11.9-3.15,18.1c-0.1,3.28,1.33,4.25,4.44,4.17C212.69,237.3,219.05,237.42,225.41,237.42 M93.57,237.35v-0.06
		c6.49,0,12.98-0.03,19.47,0.01c5.37,0.03,9.32-2.53,12.69-6.49c3.61-4.24,4.62-9.12,4.4-14.5c-0.33-7.93,1.23-7.38-7.23-7.44
		c-10.25-0.08-20.55,0.53-30.75-0.25c-12.87-1-24.04,10.53-22.35,24.71c0.34,2.86,1.27,4.15,4.3,4.08
		C80.59,237.24,87.08,237.35,93.57,237.35"/>
	<path class="st10" d="M31.63,142.04c-3.07-0.39-6.1-1.02-9.02-2.07c-11.09-3.97-19.75-14.06-22-25.62
		c-5.03-25.91,21.65-47.61,46.22-39.41c11.96,3.99,21.34,14.83,23.58,27.23c1.17,6.49,0.5,13.15,0.32,19.74
		c-0.05,1.6,0.05,3.45,1.31,4.44c0.91,0.72,2.16,0.76,3.33,0.76c51.07,0.3,102.13,0.59,153.19,0.89c3.54,0.02,7.17,0.03,10.44-1.29
		c4.03-1.62,7.05-5.04,9.64-8.53c1.72-2.31,3.32-5.6,1.52-7.86c-1.26-1.58-3.56-1.73-5.57-1.76c-47.18-0.58-94.36-1.16-141.53-1.74
		c-8.42-0.1-18.57-1.26-22.17-8.87c-1.71-3.61-1.39-7.83-0.72-11.77c1.64-9.78,5.67-19.84,13.92-25.35c8-5.34,18.29-5.39,27.91-5.26
		c48.09,0.68,96.17,1.36,144.26,2.04c0.68,0.01,1.43,0.05,1.9,0.53c0.34,0.35,0.46,0.86,0.52,1.33c0.7,5.28-3.36,10.25-8.23,12.39
		c-4.87,2.14-10.38,2.09-15.7,2.01c-39.72-0.62-79.44-1.25-119.16-1.87c-5.25-0.09-10.59-0.16-15.66,1.24
		c-5.06,1.4-9.91,4.48-12.2,9.22c-0.51,1.06-0.89,2.24-0.7,3.4c0.56,3.32,4.89,4.14,8.25,4.18c47.51,0.65,95.01,1.29,142.52,1.94
		c5.88,0.08,12.35,0.38,16.67,4.38c5.13,4.75,5.17,12.88,3.5,19.68c-2.35,9.6-7.82,18.99-16.68,23.38
		c-6.82,3.38-14.75,3.44-22.36,3.43c-61.07-0.08-122.15-0.16-183.22-0.24C41.03,142.64,36.27,142.62,31.63,142.04 M43.02,126.89
		v-0.07c2.73,0,5.45-0.02,8.18,0.01c1.66,0.02,2.79-0.52,2.79-2.4c0-6.87,0.74-13.79-0.71-20.57C50.93,92.87,38.97,86.27,29.4,90.51
		c-8.04,3.57-13.47,12.61-11.95,19.88c2.11,10.05,9.45,16.33,19.33,16.5C38.87,126.92,40.94,126.89,43.02,126.89"/>
	<path class="st10" d="M350.25,79.49c0.04,7.77,0.07,15.55,0.1,23.33c0.01,0.97,0.1,2.11,0.92,2.64c0.41,0.26,0.93,0.31,1.42,0.33
		c3,0.15,6.02,0.06,9-0.27c0.67-0.07,1.42-0.2,1.82-0.74c0.38-0.52,0.32-1.23,0.25-1.87c-0.56-5.07-0.38-10.4,1.83-15
		c2.2-4.6,6.79-8.33,11.89-8.33c0.64,0,1.32,0.07,1.8,0.49c0.65,0.57,0.7,1.55,0.69,2.41c-0.04,6.38-0.07,12.77-0.1,19.15
		c-0.01,1.21,0.05,2.58,0.94,3.41c0.69,0.64,1.71,0.77,2.65,0.82c1.76,0.1,3.53,0.03,5.28-0.19c0.74-0.09,1.53-0.24,2.04-0.78
		c0.51-0.55,0.61-1.34,0.66-2.08c0.33-5.14-0.64-10.55,1.39-15.28c2.06-4.81,7.27-8.06,12.5-7.8c0.51,0.03,1.07,0.1,1.43,0.46
		c0.42,0.43,0.45,1.1,0.44,1.7c-0.1,13.31-0.2,26.62-0.31,39.93c-31.84,0.05-63.69,0.09-95.53,0.13c-0.5,0-1.06,0.02-1.42,0.37
		c-0.38,0.37-0.41,0.97-0.4,1.5c0.03,5.82,0.05,11.63,0.08,17.45c0.02,4.56-0.1,9.54-2.99,13.08c-2.19,2.67-5.56,4.01-8.78,5.24
		c-0.91,0.35-1.97,0.68-2.81,0.2c-1-0.58-1.12-1.95-1.12-3.1c-0.03-28.1-0.05-56.2-0.07-84.31c0-4.09,0.25-7.72,3.68-10.33
		c3.52-2.68,7.82-4.31,12.25-4.57c-0.08,15.07-0.15,30.15-0.23,45.23c0,0.98,0.06,2.11,0.83,2.72c0.56,0.44,1.34,0.46,2.06,0.46
		c6.05,0.01,12.1,0.03,18.16,0.04c0.6,0,1.25-0.01,1.74-0.36c0.62-0.44,0.8-1.26,0.89-2.01c0.62-5.04-0.7-10.38,1.16-15.1
		c2.37-6.02,9.38-9.13,15.85-8.99C350.25,79.46,350.25,79.47,350.25,79.49"/>
	<path class="st10" d="M455.7,170.46c-0.03-8.5-0.06-16.99-0.08-25.49l-0.23-68.92c-0.04-11.74-0.07-23.48-0.11-35.22
		c-0.02-3.75-1.55-9.15,2.5-10.7c3.78-1.45,9.51,3.27,11.25,6.13c2.4,3.95,2.5,8.84,2.52,13.46c0.44,84.26,0.6,168.52,0.48,252.77
		c0,2.13-0.28,4.71-2.21,5.61c-1.02,0.48-2.24,0.3-3.31-0.05c-4.41-1.45-7.51-5.56-8.96-9.96c-1.44-4.4-1.47-9.13-1.48-13.76
		C455.95,246.39,455.82,208.43,455.7,170.46"/>
	<path class="st10" d="M362.76,37.57c-0.59-6.9,5.13-10.25,10.59-10.18c5.93,0.07,10.67,4.99,10.57,10.9
		c-0.1,5.9-4.54,10.3-10.33,10.23C366.76,48.45,362.64,44.28,362.76,37.57"/>
	<path class="st10" d="M35.73,55.17c-0.59-6.9,5.13-10.25,10.59-10.18c5.93,0.07,10.67,4.99,10.57,10.9
		c-0.1,5.9-4.54,10.3-10.33,10.23C39.73,66.05,35.6,61.88,35.73,55.17"/>
	<path class="st10" d="M11.76,55.17c-0.59-6.9,5.13-10.25,10.59-10.18c5.93,0.07,10.67,4.99,10.57,10.9
		c-0.1,5.9-4.54,10.3-10.33,10.23C15.76,66.05,11.64,61.88,11.76,55.17"/>
	<path class="st10" d="M389.73,180.81c-0.59-6.9,5.13-10.25,10.59-10.18c5.93,0.07,10.67,4.99,10.57,10.9
		c-0.1,5.9-4.54,10.3-10.33,10.23C393.72,191.69,389.6,187.52,389.73,180.81"/>
	<path class="st10" d="M365.76,180.81c-0.59-6.9,5.13-10.25,10.59-10.18c5.93,0.07,10.67,4.99,10.57,10.9
		c-0.1,5.9-4.54,10.3-10.33,10.23C369.75,191.69,365.63,187.52,365.76,180.81"/>
	<path class="st10" d="M372.19,60.03c0.11,6.1-3.9,10.15-10.15,10.27c-5.79,0.11-11.17-4.5-10.94-10.03
		c0.3-7.01,3.58-10.69,10.2-10.74C368.19,49.49,372.15,52.09,372.19,60.03"/>
	<path class="st10" d="M395.2,59.55c0.05,6.65-3.87,10.75-10.24,10.73c-6.19-0.03-10.7-4.57-10.83-10.93
		c-0.12-5.4,4.57-9.93,10.33-9.97C390.93,49.33,395.15,53.33,395.2,59.55"/>
	<path class="st10" d="M307.86,180.6c0.02-6.27,3.73-10.01,10.2-9.71c7.95,0.38,10.22,3.23,10.59,10.42
		c0.23,4.65-5.63,10.12-10.52,10.2C312.26,191.62,307.85,186.93,307.86,180.6"/>
	<path class="st10" d="M275.56,297.02c-1.82,0-3.37-0.64-4.65-1.94c-1.3-1.28-1.94-2.82-1.94-4.65v-6.19c1.15,0,2.14,0.41,2.95,1.22
		c0.81,0.81,1.2,1.79,1.2,2.93v2.03c0,0.68,0.24,1.24,0.71,1.71c0.47,0.47,1.05,0.71,1.71,0.71h8.24c-0.28-0.73-0.43-1.54-0.43-2.39
		c0-1.82,0.49-3.52,1.49-5.1c0.98-1.58,2.45-2.86,4.38-3.82c1.94-0.96,4.36-1.45,7.24-1.45v10.36c0,0.85-0.15,1.66-0.43,2.39h2.71
		v4.16H275.56z M292.32,290.44v-5.61c-1.52,0.38-2.71,1.13-3.54,2.24c-0.85,1.11-1.26,2.26-1.26,3.4c0,0.66,0.24,1.2,0.71,1.67
		c0.47,0.47,1.03,0.71,1.67,0.71c0.66,0,1.24-0.24,1.71-0.71C292.09,291.68,292.32,291.12,292.32,290.44z M292.66,275.79
		c0,0.66-0.24,1.24-0.71,1.71c-0.47,0.47-1.05,0.71-1.71,0.71c-0.68,0-1.24-0.24-1.71-0.71c-0.47-0.47-0.71-1.05-0.71-1.71
		s0.24-1.24,0.71-1.71c0.47-0.47,1.03-0.71,1.71-0.71c0.66,0,1.24,0.24,1.71,0.71C292.41,274.54,292.66,275.13,292.66,275.79z
		 M302.08,292.87v4.16h-4.1v-4.16H302.08z M305.44,292.87v4.16h-4.1v-4.16H305.44z M308.79,292.87v4.16h-4.1v-4.16H308.79z
		 M312.14,292.87v4.16h-4.1v-4.16H312.14z M315.49,292.87v4.16h-4.1v-4.16H315.49z M318.84,292.87v4.16h-4.1v-4.16H318.84z
		 M322.19,292.87v4.16h-4.1v-4.16H322.19z M325.54,292.87v4.16h-4.1v-4.16H325.54z M328.89,292.87v4.16h-4.1v-4.16H328.89z
		 M332.24,292.87v4.16h-4.1v-4.16H332.24z M335.59,292.87v4.16h-4.1v-4.16H335.59z M338.94,292.87v4.16h-4.1v-4.16H338.94z
		 M342.29,292.87v4.16h-4.1v-4.16H342.29z M345.45,302.12c0,0.66-0.24,1.24-0.71,1.71c-0.47,0.47-1.05,0.71-1.71,0.71
		c-0.66,0-1.24-0.24-1.71-0.71c-0.47-0.47-0.71-1.05-0.71-1.71c0-0.66,0.24-1.24,0.71-1.71c0.47-0.47,1.05-0.71,1.71-0.71
		c0.66,0,1.24,0.24,1.71,0.71C345.21,300.88,345.45,301.46,345.45,302.12z M348.78,284.27c0-1.15,0.41-2.14,1.22-2.95
		c0.81-0.81,1.79-1.22,2.93-1.22v10.35c0,0.66,0.24,1.24,0.71,1.71c0.47,0.47,1.05,0.71,1.71,0.71h0.68v4.16h-0.68
		c-1.75,0-3.25-0.6-4.51-1.79c-1.26,1.19-2.75,1.79-4.5,1.79h-4.82v-4.16h4.82c0.66,0,1.24-0.24,1.71-0.71
		c0.47-0.47,0.71-1.05,0.71-1.71V284.27z M350.89,302.12c0,0.66-0.23,1.24-0.7,1.71c-0.47,0.47-1.05,0.71-1.73,0.71
		c-0.66,0-1.24-0.24-1.71-0.71c-0.47-0.47-0.71-1.05-0.71-1.71c0-0.66,0.24-1.24,0.71-1.71c0.47-0.47,1.05-0.71,1.71-0.71
		c0.68,0,1.26,0.24,1.73,0.71C350.66,300.88,350.89,301.46,350.89,302.12z M359.2,302.12c0,0.66-0.24,1.24-0.71,1.71
		c-0.47,0.47-1.05,0.71-1.71,0.71c-0.66,0-1.24-0.24-1.71-0.71c-0.47-0.47-0.71-1.05-0.71-1.71c0-0.66,0.24-1.24,0.71-1.71
		c0.47-0.47,1.05-0.71,1.71-0.71c0.66,0,1.24,0.24,1.71,0.71C358.95,300.88,359.2,301.46,359.2,302.12z M362.53,284.27
		c0-1.15,0.41-2.14,1.22-2.95c0.81-0.81,1.79-1.22,2.93-1.22v10.35c0,0.66,0.24,1.24,0.71,1.71c0.47,0.47,1.05,0.71,1.71,0.71h0.68
		v4.16h-0.68c-1.75,0-3.25-0.6-4.51-1.79c-1.26,1.19-2.75,1.79-4.5,1.79h-4.82v-4.16h4.82c0.66,0,1.24-0.24,1.71-0.71
		c0.47-0.47,0.72-1.05,0.72-1.71V284.27z M364.64,302.12c0,0.66-0.23,1.24-0.7,1.71c-0.47,0.47-1.05,0.71-1.73,0.71
		c-0.66,0-1.24-0.24-1.71-0.71c-0.47-0.47-0.72-1.05-0.72-1.71c0-0.66,0.24-1.24,0.72-1.71c0.47-0.47,1.05-0.71,1.71-0.71
		c0.68,0,1.26,0.24,1.73,0.71C364.41,300.88,364.64,301.46,364.64,302.12z M394.3,296.18c-1.02,0.56-2.14,0.85-3.4,0.85h-21.86
		v-4.16h21.86c0.81,0,1.5-0.28,2.09-0.87c0.56-0.58,0.85-1.26,0.85-2.07s-0.28-1.5-0.85-2.09c-0.58-0.56-1.28-0.85-2.09-0.85h-19.45
		v-2.52c0-1.03,0.43-1.94,1.28-2.69l14.24-11.53c0.73,0.92,1.03,1.94,0.92,3.05c-0.13,1.11-0.64,2.03-1.52,2.8l-8.31,6.73h12.85
		c1.98,0,3.65,0.7,5.02,2.07c1.37,1.39,2.07,3.07,2.07,5.02c0,1.02-0.19,1.96-0.56,2.82c0.3,0.08,0.62,0.11,0.94,0.11h1.39v4.16
		h-2.09C396.4,297.02,395.27,296.74,394.3,296.18z M403.85,275.79c0,0.66-0.24,1.24-0.71,1.71c-0.47,0.47-1.05,0.71-1.71,0.71
		c-0.66,0-1.24-0.24-1.71-0.71c-0.47-0.47-0.71-1.05-0.71-1.71s0.24-1.24,0.71-1.71c0.47-0.47,1.05-0.71,1.71-0.71
		c0.66,0,1.24,0.24,1.71,0.71C403.6,274.54,403.85,275.13,403.85,275.79z M406.25,284.27c0-1.15,0.41-2.14,1.22-2.95
		c0.81-0.81,1.79-1.22,2.93-1.22v10.35c0,0.66,0.24,1.24,0.71,1.71c0.47,0.47,1.05,0.71,1.71,0.71h0.68v4.16h-0.68
		c-1.75,0-3.25-0.6-4.51-1.79c-1.26,1.19-2.75,1.79-4.5,1.79h-4.82v-4.16h4.82c0.66,0,1.24-0.24,1.71-0.71
		c0.47-0.47,0.71-1.05,0.71-1.71V284.27z M409.28,275.79c0,0.66-0.23,1.24-0.7,1.71c-0.47,0.47-1.05,0.71-1.73,0.71
		c-0.66,0-1.24-0.24-1.71-0.71c-0.47-0.47-0.72-1.05-0.72-1.71s0.24-1.24,0.72-1.71c0.47-0.47,1.05-0.71,1.71-0.71
		c0.68,0,1.26,0.24,1.73,0.71C409.06,274.54,409.28,275.13,409.28,275.79z M416.84,292.87v4.16h-4.1v-4.16H416.84z M420.19,292.87
		v4.16h-4.1v-4.16H420.19z M432.1,297.02h-1.3c-1.71-0.02-3.18-0.6-4.44-1.79c-1.26,1.19-2.75,1.79-4.5,1.79h-2.43v-4.16h2.43
		c0.68,0,1.26-0.24,1.73-0.71c0.47-0.47,0.7-1.03,0.7-1.71v-17.29c0-1.15,0.41-2.14,1.22-2.95c0.81-0.81,1.79-1.2,2.93-1.2v21.44
		c0,0.68,0.24,1.24,0.72,1.71c0.47,0.47,1.05,0.71,1.71,0.71h1.22V297.02z M440.35,268.99v21.44c0,1.82-0.64,3.37-1.92,4.65
		c-1.3,1.3-2.84,1.94-4.67,1.94h-2.43v-4.16h2.43c0.68,0,1.26-0.24,1.73-0.71c0.47-0.47,0.7-1.03,0.7-1.71v-17.29
		c0-1.15,0.41-2.14,1.22-2.95C438.23,269.39,439.2,268.99,440.35,268.99z"/>
	<path class="st10" d="M621.34,48.67c-19.42,12.79-40.74,25.04-55.02,43.85c-6.82,8.99-12.54,18.82-16.71,29.32
		c-2.22,5.58-4.02,11.34-5.39,17.19c-0.62,2.62-0.67,6.84-1.18,10.43c0.01,0.11,0.03,0.22,0.04,0.34c0.04,0.72,0.01,1.45-0.09,2.18
		c0.05,0.03,0.1,0.05,0.15,0.08c11.25-17.4,28.08-30.56,45.39-42.04c10.48-6.95,21.3-13.46,31.7-20.51
		c7.57-5.13,14.93-10.54,21.77-16.61c6.95-6.16,13.4-13.06,18.01-21.13c8.84-15.48,10.27-33.96,11.51-51.75
		C660.76,20.98,641.02,35.71,621.34,48.67"/>
	<path class="st10" d="M622.83,114.46c-19.33,12.82-40.63,24.75-55.12,43.25c-7.44,9.5-13.64,19.67-18.11,30.91
		c-2.23,5.58-4.03,11.32-5.41,17.16c-0.61,2.57-0.66,6.71-1.14,10.25c0,0.05,0.01,0.1,0.02,0.14c0.04,0.65,0,1.29-0.07,1.93
		c0.08,0.18,0.17,0.35,0.23,0.52c11.24-17.33,28.02-30.45,45.29-41.9c10.48-6.95,21.3-13.46,31.71-20.51
		c7.57-5.13,14.93-10.54,21.77-16.61c6.95-6.16,13.4-13.06,18-21.13c8.84-15.48,10.28-33.95,11.53-51.74
		C661.01,87.18,641.98,101.76,622.83,114.46"/>
	<path class="st10" d="M620.67,188.51c-2.7,1.83-5.4,3.65-8.12,5.46c-23.29,15.51-47.22,30.43-67.77,49.58
		c-10.58,9.85-20.25,20.89-26.96,33.69c-3.55,6.76-6.24,13.97-7.98,21.41c9.64-9.52,18.69-18.37,30.18-25.64
		c11.24-7.1,23.07-13.2,34.42-20.11c13.72-8.34,27.43-16.69,41.15-25.03c12.7-7.73,27.57-14.53,38.09-25.05
		c11.49-11,15.23-34.63,17-49.64c0.51-4.32,0.83-8.66,0.95-13.02c-0.12,4.46-6.86,12.87-9.67,16.2c-4.3,5.09-10.4,9.34-15.6,13.48
		C638.05,176.42,629.42,182.55,620.67,188.51"/>
	<path class="st11" d="M731.63,139.66c0,0.7,0.39,1.66-0.5,2.04c-0.91,0.39-1.53-0.51-2.23-0.9c-13.44-7.52-26.86-15.07-40.32-22.57
		c-1.34-0.75-1.66-1.65-1.64-2.89c0.04-6.01,0.02-12.02,0.02-18.03h0.39c0-6.18,0-12.35,0.01-18.52c0-0.55-0.3-1.26,0.46-1.56
		c0.6-0.22,1.03,0.32,1.47,0.62c13.24,9.16,27.3,17.41,40.72,26.38c1.15,0.77,1.85,1.5,1.84,2.83
		C731.74,117.93,731.71,128.79,731.63,139.66"/>
	<path class="st11" d="M731.63,71.52c0,0.7,0.39,1.66-0.5,2.04c-0.91,0.39-1.53-0.51-2.23-0.9c-13.44-7.52-26.86-15.07-40.32-22.57
		c-1.34-0.75-1.66-1.65-1.64-2.89c0.04-6.01,0.02-12.02,0.02-18.03h0.39c0-6.18,0-12.35,0.01-18.52c0-0.55-0.3-1.26,0.46-1.56
		c0.6-0.22,1.03,0.32,1.47,0.62c13.24,9.16,27.3,17.41,40.72,26.38c1.15,0.77,1.85,1.5,1.84,2.83
		C731.74,49.78,731.71,60.65,731.63,71.52"/>
	<path class="st11" d="M732.04,179.29c-0.09,10.46-0.09,20.93-0.11,31.39c-0.01,1.41,0.1,2.51-2.31,1.4
		c-13.17-6.02-26.37-11.97-39.64-17.81c-2.23-0.99-3.04-2.11-2.99-4.2c0.16-5.44,0.05-10.88,0.05-16.32h0.09
		c0-5.68,0.08-11.37-0.04-17.06c-0.05-2.29,0.58-2.21,2.67-1.18c13.55,6.62,26.67,13.85,40.12,20.62
		C731.4,176.89,732.05,177.78,732.04,179.29"/>
	<g>
		<defs>
			<path id="SVGID_00000005250465335465630780000008810171782141800888_" d="M678.93,220.26c-2.41,1.61-4.84,3.2-7.29,4.75
				c-9.79,6.2-19.84,11.96-29.97,17.56c-15.52,8.58-31.62,16.37-46.45,26.04c-14.77,9.62-30.03,18.47-45.71,26.51
				c-7.53,3.86-15.25,7.29-22.99,10.71c-0.41,0.18-0.87,0.41-1.02,0.84c-0.34,0.94,1,1.56,2,1.63c5.36,0.4,10.73-0.42,16.02-1.33
				c35.83-6.2,70.12-18.34,105.67-25.61c1.09-0.22,2.17-0.44,3.25-0.65c10.34-2.01,20.72-3.49,31.25-2.35
				c14.95,1.62,28.54,7.13,41.24,15.03c1.65,1.03,3.3,2.05,4.95,3.07c0.67,0.41,1.33,0.83,1.99,1.23v-57.35
				c-0.42-0.4-0.9-0.78-1.47-1.15c-1.71-1.13-3.65-1.85-5.55-2.6c-7.06-2.79-13.91-6.04-20.76-9.3c-0.57-0.26-1.13-0.53-1.69-0.8
				c-5.65-2.68-11.28-5.38-16.94-8.04c-0.82-0.38-1.48-0.55-2.07-0.55C681.81,217.9,680.79,219.03,678.93,220.26"/>
		</defs>
		<clipPath id="SVGID_00000094601970352641637700000015479142562340061873_">
			<use xlink:href="#SVGID_00000005250465335465630780000008810171782141800888_"  style="overflow:visible;"/>
		</clipPath>
		
			<linearGradient id="SVGID_00000106831881824212023660000006776993612724177812_" gradientUnits="userSpaceOnUse" x1="-3250.7378" y1="-4158.751" x2="-3245.6436" y2="-4158.751" gradientTransform="matrix(40.5212 0 0 -40.5212 132249.1406 -168254.1719)">
			<stop  offset="0" style="stop-color:#246699"/>
			<stop  offset="0.5335" style="stop-color:#246699"/>
			<stop  offset="0.7961" style="stop-color:#C3264C"/>
			<stop  offset="1" style="stop-color:#C3264C"/>
		</linearGradient>
		
			<rect x="525.15" y="217.9" style="clip-path:url(#SVGID_00000094601970352641637700000015479142562340061873_);fill:url(#SVGID_00000106831881824212023660000006776993612724177812_);" width="206.7" height="90.81"/>
	</g>
</g>
</svg>
