<?xml version="1.0" encoding="utf-8"?>
<!-- Generator: Adobe Illustrator 26.0.1, SVG Export Plug-In . SVG Version: 6.00 Build 0)  -->
<svg version="1.1" id="Layer_1" xmlns="http://www.w3.org/2000/svg" xmlns:xlink="http://www.w3.org/1999/xlink" x="0px" y="0px"
	 viewBox="0 0 738.11 311.26" style="enable-background:new 0 0 738.11 311.26;" xml:space="preserve">
<style type="text/css">
	.st0{fill:none;}
	.st1{clip-path:url(#SVGID_00000047780333425023098460000013580736834232131250_);}
	.st2{fill:#121111;}
	.st3{fill:#981B27;}
	.st4{clip-path:url(#SVGID_00000132076135835795624930000015182659910875095469_);}
	.st5{clip-path:url(#SVGID_00000038396677240617876720000004543494157392262840_);}
	.st6{clip-path:url(#SVGID_00000123415539794137925390000016822302989920742573_);}
	.st7{fill:#AE1E38;}
	.st8{fill:#E92D24;}
	.st9{clip-path:url(#SVGID_00000056413897395979548960000016313090224200568246_);}
	.st10{fill:#246699;}
	.st11{fill:#C3264C;}
	
		.st12{clip-path:url(#SVGID_00000005949261434808318140000003307373088987589528_);fill:url(#SVGID_00000000919879734259179620000011997303678450404256_);}
	.st13{fill:#246698;}
	.st14{fill:#C2264C;}
	
		.st15{clip-path:url(#SVGID_00000066488606926598112520000013762871714501805214_);fill:url(#SVGID_00000151501326701664574170000000047460500780196248_);}
	.st16{fill:#283895;}
	.st17{fill:#BFE6F6;}
	.st18{fill:#77D0EC;}
	.st19{fill:#0EAEDB;}
</style>
<g>
	<path class="st13" d="M430.62,239.27v-7.55c0-10.9-0.18-21.83-0.25-32.75c-0.09-12.89-0.2-25.77-0.29-38.66
		c-0.09-12.83-0.16-25.65-0.16-38.48c-0.01-13.72-0.02-27.45-0.02-41.17c-0.01-6.76-0.01-13.53-0.01-20.29l-0.01-10.44
		c-0.01-2.75-0.9-7.29-0.01-9.86l0.56-1.62c1.66-4.38,9-9.33,13.32-9.02c1.04,0.07,1.42,0.71,1.58,1.42
		c0.23,0.99,0.28,2.02,0.28,3.04c0.05,57.63,0.33,115.79,0.4,173.78c0.02,13.15,0.02,26.3,0.01,39.43c0,1.25-0.05,2.52-0.09,3.79
		c-0.08,2.25-1.92,4.04-4.18,4.04h-1.78c-8.4,0-16.9-0.37-25.3,0c-9.32,0.42-18.76,0.13-28.11,0.12
		c-9.67-0.01-19.33-0.01-28.99-0.02c-38.71-0.02-77.42-0.04-116.13-0.06c-54.97-0.03-109.94-0.06-164.9-0.09
		c-1.97,0-4.03,0.02-5.8,0.87c-2.58,1.23-4.07,3.92-5.65,6.31c-6.45,9.7-17.48,16.41-29.12,16.94
		c-11.64,0.53-23.52-5.42-29.49-15.43c-5.78-9.71-5.73-21.68-5.5-32.98l0.72-36.08c8.67,0.33,14.77,9.24,16.03,17.82
		c1.26,8.59-0.8,17.29-0.81,25.97c-0.01,10.15,3.9,21.71,14.94,23.86c5.82,1.13,11.73-1.12,15.92-5.32c9-9.02,6.84-23.76,6.84-35.35
		c0-8.47,7.2-15.6,13.8-20.24c7.75-5.45,17.06-6.61,26.35-6.44c10.04,0.18,19.99,0.8,29.99,0.17c7.33,0.02,14.67,0.03,22.01,0.05
		c0.45,0.45,0.71,0.7,1.16,1.15c0.02,1.44,0.03,2.87,0.05,4.31c-0.01,0.58-0.03,1.15-0.04,1.72c-0.18,10.16,1.63,25.5-3.81,34.5
		c-1.49,2.48-0.53,3.15,2.53,2.31c3.69,0.01,7.19,0.02,10.88,0.02c1.47,0.35,2.07-0.13,1.74-1.52c0.06-7.43,0.14-14.86,0.16-22.29
		c0.01-1.84,0.06-2.95,2.57-2.23c3.22,0.92,6.31,2.44,8.73,4.79c1.19,1.14,2.19,2.46,3,3.89c0.78,1.37,1.77,3.2,2.09,4.73v7.95
		c0,1.41-0.38,3.27,0.69,4.35c1.36,1.37,3.66,0.79,5.33,0.47c1.18-0.03,3.06-0.08,4.24-0.11c1.29,0.24,1.84-0.25,1.46-1.64
		c0.17-5.38,0.33-10.53,0.5-15.91c0.23-0.94,0.17-1.92,0.07-2.9c2.3-11.18,10.74-20.86,21.49-24.81
		c10.48-3.85,22.51-1.79,33.42-1.98c11.35-0.2,22.71-0.09,34.06-0.2c2.92-0.03,3.83,0.66,3.79,3.64
		c-0.13,10.19,0.97,20.88-0.11,31.01c-0.35,3.29-1.4,6.8-2.85,9.74c-0.45,0.92-1.57,2.41-0.54,3.26c0.66,0.55,1.83,0.14,2.62,0.1
		c1.11-0.05,2.25,0,3.37,0h11.57h29.67h7.76c2.04,0,5.44,0.68,7.35-0.14c0.37-0.16,0.6-0.54,0.68-0.94c0.08-0.39,0.04-0.8-0.01-1.2
		c-0.23-1.99-0.26-3.8-0.94-5.7c-3-8.44-11.27-13.94-20.16-13.9c-7.82,0.04-16.5-2.21-18.16-11.12c0.4-0.43,0.39-0.82-0.11-1.17
		c-0.51-2.93,0.69-3.78,3.63-3.68c16.03,0.54,32.54-1.13,44.16,12.23c4.62,5.31,8.89,14.67,8.26,21.85
		c-0.1,1.12-0.23,2.48,0.68,3.13c0.49,0.35,1.14,0.37,1.75,0.38c6.53,0.06,13.07,0.1,19.61,0.25c2.32,0.05,2.82-1.03,2.82-3.1
		c-0.03-8.29,0.04-16.58,0.29-24.87c0.09-2.99,1.92-5.34,3.86-7.51c2.51-2.8,12.69-10.04,12.49-2.01
		c-0.28,11.19-0.18,22.38-0.2,33.55c-0.01,0.87,0.07,1.74,0.29,2.59c0.38,1.47,0.91,1.56,2.43,1.57c6.36,0.05,12.72-0.15,19.08,0.05
		c3.51,0.12,6.99,0.19,10.51,0.19 M227.27,239.39v-0.12c6.54,0,13.09,0.14,19.63-0.04c9.79-0.26,17.46-8.17,17.65-17.99
		c0.06-3.27-0.13-6.55,0.07-9.81c0.17-2.86-0.72-3.89-3.74-3.85c-12.56,0.17-25.13,0.34-37.68,0.03c-7.63-0.2-12.55,3.48-16.46,9.38
		c-3.74,5.63-2.99,12-3.17,18.25c-0.1,3.3,1.34,4.29,4.48,4.2C214.45,239.26,220.86,239.39,227.27,239.39 M94.35,239.31v-0.06
		c6.54,0,13.09-0.03,19.64,0.01c5.42,0.03,9.4-2.55,12.79-6.54c3.64-4.28,4.66-9.19,4.43-14.62c-0.33-7.99,1.24-7.44-7.29-7.5
		c-10.34-0.08-20.72,0.53-31.01-0.26c-12.98-1.01-24.24,10.62-22.53,24.92c0.34,2.88,1.28,4.18,4.33,4.11
		C81.25,239.21,87.8,239.31,94.35,239.31"/>
	<path class="st13" d="M31.89,143.21c-3.1-0.39-6.15-1.03-9.09-2.09c-11.18-4-19.92-14.18-22.18-25.84
		c-5.07-26.13,21.83-48,46.6-39.74C59.28,79.57,68.74,90.51,71,103.01c1.18,6.54,0.51,13.26,0.32,19.91
		c-0.05,1.62,0.05,3.48,1.32,4.48c0.92,0.72,2.18,0.77,3.35,0.77c51.49,0.3,102.98,0.6,154.46,0.89c3.56,0.02,7.23,0.03,10.53-1.3
		c4.07-1.63,7.11-5.08,9.72-8.6c1.73-2.33,3.35-5.65,1.54-7.92c-1.27-1.59-3.59-1.75-5.62-1.77c-47.57-0.59-95.14-1.17-142.71-1.75
		c-8.49-0.1-18.73-1.27-22.36-8.94c-1.72-3.64-1.4-7.89-0.73-11.86c1.65-9.86,5.72-20.01,14.03-25.56
		c8.06-5.38,18.44-5.43,28.14-5.3c48.49,0.68,96.97,1.37,145.45,2.05c0.68,0.01,1.44,0.05,1.92,0.54c0.34,0.35,0.46,0.86,0.53,1.35
		c0.7,5.32-3.38,10.33-8.29,12.49c-4.91,2.16-10.47,2.11-15.83,2.03c-40.05-0.63-80.1-1.26-120.15-1.89
		c-5.3-0.09-10.68-0.16-15.79,1.25c-5.11,1.41-10,4.52-12.3,9.3c-0.51,1.07-0.9,2.26-0.7,3.43c0.56,3.34,4.93,4.17,8.32,4.22
		c47.9,0.65,95.8,1.3,143.7,1.96c5.93,0.08,12.46,0.39,16.81,4.42c5.18,4.79,5.21,12.99,3.53,19.85
		c-2.37,9.68-7.89,19.15-16.82,23.58c-6.88,3.41-14.87,3.47-22.55,3.46c-61.58-0.08-123.16-0.16-184.74-0.25
		C41.37,143.82,36.57,143.8,31.89,143.21 M43.38,127.94v-0.07c2.75,0,5.5-0.02,8.24,0.01c1.67,0.02,2.81-0.52,2.81-2.41
		c0-6.92,0.74-13.9-0.71-20.75c-2.37-11.07-14.43-17.74-24.07-13.46c-8.11,3.6-13.58,12.71-12.04,20.04
		c2.13,10.13,9.53,16.46,19.49,16.64C39.19,127.97,41.28,127.94,43.38,127.94"/>
	<path class="st13" d="M353.15,80.15c0.04,7.84,0.07,15.68,0.1,23.52c0.01,0.98,0.1,2.13,0.92,2.66c0.42,0.27,0.94,0.31,1.43,0.33
		c3.03,0.15,6.07,0.06,9.08-0.27c0.68-0.07,1.43-0.21,1.84-0.75c0.39-0.52,0.32-1.24,0.25-1.89c-0.56-5.12-0.38-10.49,1.84-15.13
		c2.22-4.64,6.84-8.4,11.99-8.4c0.64,0,1.33,0.07,1.81,0.5c0.66,0.57,0.7,1.56,0.7,2.43c-0.04,6.44-0.07,12.87-0.1,19.31
		c-0.01,1.22,0.05,2.6,0.95,3.44c0.7,0.65,1.73,0.78,2.68,0.83c1.78,0.1,3.56,0.03,5.33-0.19c0.74-0.09,1.55-0.24,2.06-0.79
		c0.51-0.55,0.61-1.36,0.66-2.1c0.33-5.18-0.64-10.64,1.4-15.41c2.08-4.85,7.33-8.13,12.6-7.87c0.51,0.03,1.08,0.1,1.44,0.47
		c0.43,0.43,0.45,1.11,0.45,1.72c-0.1,13.42-0.21,26.84-0.31,40.26c-32.11,0.05-64.21,0.09-96.32,0.13c-0.51,0-1.07,0.02-1.43,0.37
		c-0.39,0.37-0.41,0.98-0.41,1.51c0.03,5.87,0.05,11.73,0.08,17.6c0.02,4.6-0.1,9.62-3.01,13.18c-2.2,2.69-5.6,4.04-8.85,5.29
		c-0.92,0.35-1.98,0.69-2.84,0.21c-1.01-0.58-1.13-1.96-1.13-3.13c-0.03-28.34-0.05-56.67-0.07-85c0-4.12,0.26-7.78,3.71-10.42
		c3.55-2.71,7.89-4.35,12.35-4.61c-0.08,15.2-0.15,30.4-0.23,45.6c-0.01,0.99,0.06,2.13,0.84,2.74c0.56,0.45,1.35,0.47,2.08,0.47
		c6.1,0.01,12.2,0.03,18.31,0.04c0.61,0,1.26-0.01,1.76-0.36c0.62-0.44,0.81-1.27,0.9-2.03c0.62-5.08-0.71-10.46,1.17-15.22
		c2.39-6.07,9.46-9.2,15.98-9.07V80.15z"/>
	<path class="st13" d="M459.47,171.88c-0.03-8.57-0.06-17.13-0.08-25.7l-0.23-69.49c-0.04-11.84-0.07-23.68-0.11-35.52
		c-0.02-3.78-1.56-9.22,2.52-10.79c3.82-1.46,9.59,3.3,11.35,6.18c2.42,3.99,2.52,8.91,2.54,13.58
		c0.44,84.95,0.6,169.91,0.48,254.87c-0.01,2.15-0.28,4.75-2.22,5.66c-1.03,0.48-2.25,0.3-3.34-0.05c-4.44-1.46-7.58-5.6-9.03-10.05
		c-1.45-4.44-1.48-9.2-1.49-13.87C459.72,248.43,459.6,210.15,459.47,171.88"/>
	<path class="st13" d="M365.77,37.88c-0.59-6.96,5.17-10.33,10.68-10.27c5.98,0.07,10.76,5.03,10.66,10.99
		c-0.1,5.95-4.58,10.39-10.42,10.32C369.8,48.85,365.64,44.65,365.77,37.88"/>
	<path class="st13" d="M36.03,55.63c-0.6-6.96,5.17-10.33,10.68-10.27c5.98,0.07,10.76,5.03,10.66,10.99
		c-0.1,5.95-4.58,10.39-10.42,10.32C40.06,66.59,35.9,62.39,36.03,55.63"/>
	<path class="st13" d="M11.86,55.63c-0.59-6.96,5.17-10.33,10.68-10.27c5.98,0.07,10.76,5.03,10.66,10.99
		c-0.1,5.95-4.58,10.39-10.42,10.32C15.89,66.59,11.73,62.39,11.86,55.63"/>
	<path class="st13" d="M392.96,182.31c-0.59-6.96,5.17-10.33,10.68-10.27c5.98,0.07,10.76,5.03,10.66,10.99
		c-0.1,5.95-4.58,10.39-10.42,10.32C396.98,193.28,392.83,189.08,392.96,182.31"/>
	<path class="st13" d="M368.79,182.31c-0.6-6.96,5.17-10.33,10.68-10.27c5.98,0.07,10.76,5.03,10.66,10.99
		c-0.1,5.95-4.58,10.39-10.42,10.32C372.82,193.28,368.66,189.08,368.79,182.31"/>
	<path class="st13" d="M375.27,60.53c0.11,6.15-3.93,10.24-10.24,10.36C359.2,71,353.77,66.35,354,60.78
		c0.3-7.07,3.61-10.78,10.28-10.83C371.24,49.9,375.23,52.52,375.27,60.53"/>
	<path class="st13" d="M398.48,60.04c0.05,6.7-3.9,10.84-10.33,10.82c-6.24-0.03-10.79-4.61-10.92-11.02
		c-0.12-5.44,4.61-10.01,10.42-10.06C394.17,49.74,398.42,53.77,398.48,60.04"/>
	<path class="st13" d="M310.41,182.1c0.02-6.32,3.76-10.1,10.28-9.79c8.01,0.38,10.31,3.26,10.67,10.51
		c0.23,4.68-5.68,10.21-10.61,10.29C314.85,193.2,310.4,188.47,310.41,182.1"/>
	<path class="st13" d="M323.88,294.57c0.47-0.47,0.7-1.06,0.7-1.73v-6.24c0-1.16,0.42-2.14,1.23-2.96s1.82-1.23,2.98-1.23v10.43
		c0,1.84-0.65,3.39-1.95,4.68c-1.31,1.31-2.86,1.95-4.7,1.95h-13.39c-1.84,0-3.39-0.64-4.68-1.95c-1.31-1.29-1.95-2.84-1.95-4.68
		v-7.78c1.16,0,2.14,0.4,2.96,1.21s1.23,1.82,1.23,2.98v3.58c0,0.66,0.25,1.25,0.72,1.73c0.47,0.47,1.04,0.72,1.73,0.72h13.39
		C322.82,295.29,323.41,295.04,323.88,294.57z M314.1,280.13c-0.47-0.47-1.06-0.72-1.73-0.72c-0.66,0-1.25,0.25-1.73,0.72
		s-0.72,1.06-0.72,1.73s0.25,1.25,0.72,1.73s1.06,0.72,1.73,0.72c0.66,0,1.25-0.25,1.73-0.72s0.72-1.06,0.72-1.73
		S314.57,280.61,314.1,280.13z M319.6,280.13c-0.47-0.47-1.06-0.72-1.74-0.72c-0.66,0-1.25,0.25-1.73,0.72
		c-0.47,0.47-0.72,1.06-0.72,1.73s0.25,1.25,0.72,1.73c0.47,0.47,1.06,0.72,1.73,0.72c0.68,0,1.27-0.25,1.74-0.72
		c0.47-0.47,0.7-1.06,0.7-1.73S320.07,280.61,319.6,280.13z M346.78,272.43c0.82-0.82,1.82-1.21,2.98-1.21V284h-0.02
		c-0.1,1.71-0.7,3.15-1.82,4.31c1.23,1.27,1.84,2.79,1.84,4.55c0,1.84-0.65,3.39-1.93,4.68c-1.31,1.29-2.86,1.93-4.68,1.93h-10.45
		c0-3.77,0.8-6.73,2.37-8.91c1.57-2.16,3.51-3.51,5.84-4.06l-7.17-8.17c-0.76-0.91-1.1-1.92-1.02-3.03c0.06-1.12,0.53-2.07,1.4-2.88
		l11.08,12.61c0.25-0.4,0.36-0.83,0.36-1.31v-8.31C345.54,274.25,345.96,273.25,346.78,272.43z M344.84,294.57
		c0.47-0.47,0.7-1.04,0.7-1.71s-0.23-1.23-0.7-1.71s-1.04-0.7-1.71-0.7c-1.16,0-2.31,0.42-3.43,1.25c-1.12,0.85-1.88,2.05-2.24,3.58
		h5.67C343.8,295.29,344.37,295.04,344.84,294.57z M355.86,297.53c1.29,1.31,2.85,1.95,4.67,1.95c0.36,0,0.72-0.02,1.08-0.08
		c-0.76,1.04-1.74,1.84-2.96,2.35c-2.11,1.06-3.17,2.62-3.17,4.68v0.06c3.26,0.04,5.99-1.01,8.19-3.11c2.2-2.11,3.36-4.78,3.47-8.02
		v-12.93c-2.92,0-5.37,0.49-7.32,1.46s-3.43,2.26-4.42,3.85c-1.01,1.59-1.5,3.3-1.5,5.14C353.9,294.68,354.55,296.24,355.86,297.53z
		 M359.36,289.45c0.83-1.12,2.03-1.88,3.58-2.26v5.69c-0.02,0.68-0.27,1.25-0.72,1.71c-0.47,0.47-1.04,0.7-1.71,0.7
		c-0.66,0-1.23-0.25-1.71-0.72c-0.47-0.47-0.72-1.02-0.72-1.69C358.09,291.72,358.51,290.57,359.36,289.45z M378.98,295.29h-0.66
		c-0.68,0-1.25-0.25-1.73-0.72c-0.47-0.47-0.72-1.04-0.72-1.73v-21.62c-1.16,0-2.14,0.4-2.96,1.21c-0.82,0.82-1.23,1.82-1.23,2.98
		v17.43c0,1.84,0.64,3.39,1.95,4.68c1.27,1.29,2.81,1.93,4.61,1.95h0.74V295.29z M396.72,299.48v-4.19h-2.67
		c0.28-0.74,0.44-1.56,0.44-2.41v-10.45c-2.9,0-5.35,0.49-7.3,1.46s-3.43,2.26-4.42,3.85c-1.01,1.59-1.5,3.3-1.5,5.14
		c0,0.85,0.15,1.67,0.44,2.41h-3.47v4.19H396.72z M387.1,276.34c-0.47-0.47-1.06-0.72-1.74-0.72c-0.66,0-1.25,0.25-1.73,0.72
		c-0.47,0.47-0.72,1.06-0.72,1.73c0,0.66,0.25,1.25,0.72,1.73c0.47,0.47,1.06,0.72,1.73,0.72c0.68,0,1.27-0.25,1.74-0.72
		s0.7-1.06,0.7-1.73C387.81,277.4,387.58,276.81,387.1,276.34z M386.17,294.57c-0.47-0.47-0.72-1.02-0.72-1.69
		c0-1.16,0.42-2.31,1.27-3.43c0.83-1.12,2.03-1.88,3.57-2.26v5.65c0,0.68-0.23,1.25-0.7,1.73c-0.47,0.47-1.06,0.72-1.73,0.72
		C387.22,295.29,386.65,295.04,386.17,294.57z M392.58,276.34c-0.47-0.47-1.06-0.72-1.73-0.72c-0.68,0-1.25,0.25-1.73,0.72
		c-0.47,0.47-0.72,1.06-0.72,1.73c0,0.66,0.25,1.25,0.72,1.73c0.47,0.47,1.04,0.72,1.73,0.72c0.66,0,1.25-0.25,1.73-0.72
		c0.47-0.47,0.7-1.06,0.7-1.73C393.29,277.4,393.06,276.81,392.58,276.34z M411.94,297.68c1.25,1.19,2.77,1.8,4.53,1.8h0.44v-4.19
		h-0.44c-0.66,0-1.23-0.23-1.71-0.7c-0.47-0.47-0.72-1.04-0.74-1.73c0-1.84-0.49-3.55-1.48-5.14c-0.99-1.57-2.47-2.86-4.42-3.85
		c-1.97-0.97-4.42-1.46-7.32-1.46v10.43c0,0.66-0.23,1.25-0.7,1.73c-0.47,0.47-1.06,0.72-1.74,0.72h-2.39v4.19h2.39
		c1.76,0,3.26-0.59,4.53-1.78c1.27,1.19,2.77,1.78,4.53,1.78C409.17,299.48,410.67,298.87,411.94,297.68z M405,287.19
		c1.54,0.36,2.73,1.12,3.58,2.24c0.83,1.14,1.25,2.28,1.25,3.43c0,0.66-0.23,1.23-0.7,1.71s-1.04,0.72-1.71,0.72
		s-1.23-0.25-1.71-0.72c-0.47-0.47-0.72-1.04-0.72-1.71V287.19z M416.14,295.29v4.19h4.13v-4.19H416.14z M419.52,295.29v4.19h4.13
		v-4.19H419.52z M435.66,295.29h-1.23c-0.66,0-1.25-0.25-1.73-0.72c-0.47-0.47-0.72-1.04-0.72-1.73v-21.62
		c-1.16,0-2.14,0.4-2.96,1.21c-0.82,0.82-1.23,1.82-1.23,2.98v17.43c0,0.68-0.23,1.25-0.7,1.73c-0.47,0.47-1.06,0.72-1.74,0.72
		h-2.45v4.19h2.45c1.76,0,3.26-0.61,4.53-1.8c1.27,1.19,2.75,1.78,4.48,1.8h1.31V295.29z M441.02,272.43
		c-0.82,0.82-1.23,1.82-1.23,2.98v17.43c0,0.68-0.23,1.25-0.7,1.73c-0.47,0.47-1.06,0.72-1.74,0.72h-2.45v4.19h2.45
		c1.84,0,3.4-0.64,4.7-1.95c1.29-1.29,1.93-2.84,1.93-4.68v-21.62C442.82,271.22,441.84,271.62,441.02,272.43z"/>
	<path class="st13" d="M626.48,49.07C606.9,61.96,585.4,74.32,571,93.28c-6.87,9.06-12.65,18.97-16.85,29.56
		c-2.24,5.63-4.05,11.43-5.44,17.33c-0.62,2.64-0.67,6.9-1.19,10.51c0.01,0.11,0.03,0.23,0.04,0.34c0.04,0.73,0.01,1.46-0.08,2.19
		c0.05,0.03,0.1,0.05,0.14,0.08c11.34-17.55,28.31-30.81,45.77-42.39c10.57-7.01,21.47-13.57,31.96-20.68
		c7.64-5.17,15.05-10.63,21.95-16.75c7.01-6.21,13.51-13.16,18.16-21.31c8.91-15.61,10.36-34.24,11.61-52.17
		C666.24,21.15,646.33,36.01,626.48,49.07"/>
	<path class="st13" d="M627.99,115.4c-19.49,12.92-40.97,24.95-55.57,43.61c-7.5,9.58-13.75,19.84-18.26,31.17
		c-2.24,5.62-4.06,11.41-5.45,17.3c-0.61,2.59-0.67,6.76-1.15,10.34c0,0.05,0.01,0.1,0.02,0.14c0.04,0.65,0,1.3-0.07,1.95
		c0.08,0.18,0.17,0.35,0.24,0.53c11.34-17.47,28.25-30.7,45.66-42.25c10.57-7.01,21.47-13.57,31.97-20.68
		c7.63-5.17,15.05-10.63,21.95-16.75c7.01-6.21,13.51-13.16,18.15-21.3c8.92-15.61,10.37-34.23,11.63-52.16
		C666.48,87.9,647.3,102.6,627.99,115.4"/>
	<path class="st13" d="M625.81,190.07c-2.72,1.85-5.45,3.68-8.19,5.51c-23.48,15.64-47.61,30.68-68.33,49.99
		c-10.66,9.93-20.42,21.06-27.19,33.97c-3.57,6.82-6.29,14.09-8.05,21.58c9.72-9.59,18.84-18.52,30.43-25.85
		c11.33-7.16,23.26-13.31,34.71-20.28c13.83-8.41,27.66-16.83,41.49-25.23c12.8-7.79,27.8-14.65,38.41-25.26
		c11.58-11.09,15.35-34.92,17.14-50.05c0.51-4.36,0.84-8.73,0.96-13.12c-0.12,4.5-6.92,12.98-9.75,16.34
		c-4.34,5.14-10.49,9.42-15.73,13.59C643.34,177.88,634.63,184.07,625.81,190.07"/>
	<path class="st14" d="M737.69,140.82c0,0.7,0.39,1.67-0.5,2.05c-0.91,0.39-1.55-0.51-2.25-0.91c-13.55-7.58-27.09-15.2-40.66-22.75
		c-1.36-0.75-1.67-1.66-1.65-2.91c0.04-6.06,0.02-12.12,0.02-18.18h0.39c0-6.23,0-12.45,0.01-18.68c0-0.55-0.3-1.27,0.47-1.57
		c0.61-0.23,1.04,0.32,1.48,0.62c13.34,9.24,27.53,17.56,41.05,26.6c1.16,0.78,1.86,1.51,1.85,2.86
		C737.8,118.9,737.77,129.86,737.69,140.82"/>
	<path class="st14" d="M737.69,72.11c0,0.7,0.39,1.67-0.5,2.05c-0.91,0.39-1.55-0.51-2.25-0.91c-13.55-7.58-27.09-15.2-40.66-22.75
		c-1.36-0.75-1.67-1.66-1.65-2.91c0.04-6.06,0.02-12.12,0.02-18.18h0.39c0-6.23,0-12.45,0.01-18.68c0-0.55-0.3-1.27,0.47-1.57
		c0.61-0.23,1.04,0.32,1.48,0.62c13.34,9.24,27.53,17.56,41.05,26.6c1.16,0.78,1.86,1.51,1.85,2.85
		C737.8,50.19,737.77,61.15,737.69,72.11"/>
	<path class="st14" d="M738.11,180.77c-0.09,10.55-0.09,21.1-0.11,31.65c-0.01,1.42,0.1,2.53-2.33,1.41
		c-13.28-6.07-26.59-12.07-39.97-17.96c-2.25-1-3.07-2.13-3.01-4.24c0.16-5.49,0.05-10.97,0.05-16.45h0.09
		c0-5.73,0.08-11.46-0.04-17.2c-0.05-2.31,0.59-2.22,2.7-1.19c13.66,6.68,26.89,13.96,40.45,20.79
		C737.46,178.36,738.12,179.25,738.11,180.77"/>
	<g>
		<defs>
			<path id="SVGID_00000131356075314872973420000001729378555009220244_" d="M684.55,222.09c-2.43,1.63-4.88,3.22-7.35,4.79
				c-9.86,6.26-20.01,12.06-30.23,17.71c-15.64,8.65-31.88,16.51-46.83,26.25c-14.89,9.7-30.28,18.62-46.09,26.73
				c-7.6,3.9-15.38,7.36-23.19,10.81c-0.42,0.18-0.88,0.41-1.03,0.84c-0.34,0.95,1.02,1.57,2.02,1.64c5.4,0.4,10.81-0.42,16.15-1.34
				c36.12-6.26,70.71-18.49,106.55-25.82c1.09-0.23,2.18-0.45,3.28-0.66c10.42-2.03,20.89-3.51,31.5-2.37
				c15.08,1.63,28.78,7.18,41.58,15.15c1.66,1.04,3.32,2.07,4.99,3.1c0.66,0.41,1.34,0.83,2,1.24v-57.83
				c-0.43-0.4-0.91-0.79-1.48-1.16c-1.73-1.14-3.68-1.86-5.6-2.62c-7.11-2.8-14.03-6.09-20.94-9.37c-0.56-0.27-1.14-0.54-1.71-0.81
				c-5.69-2.71-11.37-5.43-17.07-8.11c-0.82-0.39-1.49-0.55-2.09-0.55C687.46,219.7,686.42,220.84,684.55,222.09"/>
		</defs>
		<clipPath id="SVGID_00000056421056058162521660000005959113623814778510_">
			<use xlink:href="#SVGID_00000131356075314872973420000001729378555009220244_"  style="overflow:visible;"/>
		</clipPath>
		
			<linearGradient id="SVGID_00000113346836813391832990000013499396937666607005_" gradientUnits="userSpaceOnUse" x1="-2407.0552" y1="-4802.2373" x2="-2401.9189" y2="-4802.2373" gradientTransform="matrix(40.5212 0 0 -40.5212 98066.4844 -194326.7969)">
			<stop  offset="0" style="stop-color:#246698"/>
			<stop  offset="0.5335" style="stop-color:#246698"/>
			<stop  offset="0.7961" style="stop-color:#C2264C"/>
			<stop  offset="1" style="stop-color:#C2264C"/>
		</linearGradient>
		
			<rect x="529.5" y="219.7" style="clip-path:url(#SVGID_00000056421056058162521660000005959113623814778510_);fill:url(#SVGID_00000113346836813391832990000013499396937666607005_);" width="208.41" height="91.56"/>
	</g>
</g>
</svg>
